<mxfile host="app.diagrams.net" agent="Mozilla/5.0 (Windows NT 10.0; Win64; x64) AppleWebKit/537.36 (KHTML, like Gecko) Chrome/128.0.0.0 Safari/537.36" version="24.7.7">
  <diagram name="第 1 页" id="Sp6cAcsMj1LJQVN4GSf3">
    <mxGraphModel dx="1941" dy="866" grid="1" gridSize="10" guides="1" tooltips="1" connect="1" arrows="1" fold="1" page="1" pageScale="1" pageWidth="827" pageHeight="1169" math="0" shadow="0">
      <root>
        <mxCell id="0" />
        <mxCell id="1" parent="0" />
        <mxCell id="AZJ5ZLYv0wKqi_fWB7lU-9" value="" style="strokeWidth=1;shadow=0;dashed=0;align=center;html=1;shape=mxgraph.mockup.containers.browserWindow;rSize=0;strokeColor=#666666;strokeColor2=#008cff;strokeColor3=#c4c4c4;mainText=,;recursiveResize=0;" parent="1" vertex="1">
          <mxGeometry x="-80" y="180" width="577.43" height="790" as="geometry" />
        </mxCell>
        <mxCell id="AZJ5ZLYv0wKqi_fWB7lU-75" value="" style="image;aspect=fixed;html=1;points=[];align=center;fontSize=12;image=img/lib/azure2/general/Image.svg;" parent="AZJ5ZLYv0wKqi_fWB7lU-9" vertex="1">
          <mxGeometry x="5.08" y="240" width="567.27" height="390" as="geometry" />
        </mxCell>
        <mxCell id="AZJ5ZLYv0wKqi_fWB7lU-10" value="&lt;font style=&quot;font-size: 7px;&quot;&gt;Member registration form&lt;/font&gt;" style="strokeWidth=1;shadow=0;dashed=0;align=center;html=1;shape=mxgraph.mockup.containers.anchor;fontSize=17;fontColor=#666666;align=left;whiteSpace=wrap;" parent="AZJ5ZLYv0wKqi_fWB7lU-9" vertex="1">
          <mxGeometry x="60" y="12" width="110" height="26" as="geometry" />
        </mxCell>
        <mxCell id="AZJ5ZLYv0wKqi_fWB7lU-11" value="https://www.draw.io" style="strokeWidth=1;shadow=0;dashed=0;align=center;html=1;shape=mxgraph.mockup.containers.anchor;rSize=0;fontSize=17;fontColor=#666666;align=left;" parent="AZJ5ZLYv0wKqi_fWB7lU-9" vertex="1">
          <mxGeometry x="130" y="60" width="250" height="26" as="geometry" />
        </mxCell>
        <mxCell id="AZJ5ZLYv0wKqi_fWB7lU-17" value="&lt;font style=&quot;font-size: 16px;&quot;&gt;&lt;b&gt;Member registration form&lt;/b&gt;&lt;/font&gt;" style="text;html=1;align=center;verticalAlign=middle;whiteSpace=wrap;rounded=0;" parent="AZJ5ZLYv0wKqi_fWB7lU-9" vertex="1">
          <mxGeometry x="20" y="152.5" width="220" height="30" as="geometry" />
        </mxCell>
        <mxCell id="AZJ5ZLYv0wKqi_fWB7lU-19" value="" style="rounded=0;whiteSpace=wrap;html=1;" parent="AZJ5ZLYv0wKqi_fWB7lU-9" vertex="1">
          <mxGeometry x="112.5" y="282.5" width="110" height="20" as="geometry" />
        </mxCell>
        <mxCell id="AZJ5ZLYv0wKqi_fWB7lU-28" value="" style="rounded=0;whiteSpace=wrap;html=1;" parent="AZJ5ZLYv0wKqi_fWB7lU-9" vertex="1">
          <mxGeometry x="112.5" y="322.5" width="110" height="20" as="geometry" />
        </mxCell>
        <mxCell id="AZJ5ZLYv0wKqi_fWB7lU-29" value="First name:&amp;nbsp;" style="text;html=1;align=left;verticalAlign=middle;whiteSpace=wrap;rounded=0;" parent="AZJ5ZLYv0wKqi_fWB7lU-9" vertex="1">
          <mxGeometry x="32.5" y="280" width="80" height="30" as="geometry" />
        </mxCell>
        <mxCell id="AZJ5ZLYv0wKqi_fWB7lU-38" value="Last name:&amp;nbsp;" style="text;html=1;align=left;verticalAlign=middle;whiteSpace=wrap;rounded=0;" parent="AZJ5ZLYv0wKqi_fWB7lU-9" vertex="1">
          <mxGeometry x="32.5" y="315" width="80" height="30" as="geometry" />
        </mxCell>
        <mxCell id="AZJ5ZLYv0wKqi_fWB7lU-39" value="Gender:" style="text;html=1;align=left;verticalAlign=middle;whiteSpace=wrap;rounded=0;" parent="AZJ5ZLYv0wKqi_fWB7lU-9" vertex="1">
          <mxGeometry x="31.25" y="353.75" width="80" height="30" as="geometry" />
        </mxCell>
        <mxCell id="AZJ5ZLYv0wKqi_fWB7lU-40" value="" style="ellipse;whiteSpace=wrap;html=1;aspect=fixed;" parent="AZJ5ZLYv0wKqi_fWB7lU-9" vertex="1">
          <mxGeometry x="111.25" y="360" width="12.5" height="12.5" as="geometry" />
        </mxCell>
        <mxCell id="AZJ5ZLYv0wKqi_fWB7lU-41" value="" style="ellipse;whiteSpace=wrap;html=1;aspect=fixed;" parent="AZJ5ZLYv0wKqi_fWB7lU-9" vertex="1">
          <mxGeometry x="158.75" y="360" width="12.5" height="12.5" as="geometry" />
        </mxCell>
        <mxCell id="AZJ5ZLYv0wKqi_fWB7lU-42" value="" style="ellipse;whiteSpace=wrap;html=1;aspect=fixed;" parent="AZJ5ZLYv0wKqi_fWB7lU-9" vertex="1">
          <mxGeometry x="211.25" y="362.5" width="12.5" height="12.5" as="geometry" />
        </mxCell>
        <mxCell id="AZJ5ZLYv0wKqi_fWB7lU-45" value="&lt;font style=&quot;font-size: 8px;&quot;&gt;Male&lt;/font&gt;" style="text;html=1;align=center;verticalAlign=middle;whiteSpace=wrap;rounded=0;" parent="AZJ5ZLYv0wKqi_fWB7lU-9" vertex="1">
          <mxGeometry x="121.25" y="357.5" width="40" height="17.5" as="geometry" />
        </mxCell>
        <mxCell id="AZJ5ZLYv0wKqi_fWB7lU-46" value="&lt;font style=&quot;font-size: 8px;&quot;&gt;Female&lt;/font&gt;" style="text;html=1;align=center;verticalAlign=middle;whiteSpace=wrap;rounded=0;" parent="AZJ5ZLYv0wKqi_fWB7lU-9" vertex="1">
          <mxGeometry x="171.25" y="357.5" width="40" height="17.5" as="geometry" />
        </mxCell>
        <mxCell id="AZJ5ZLYv0wKqi_fWB7lU-47" value="&lt;font style=&quot;font-size: 8px;&quot;&gt;unknow&lt;/font&gt;" style="text;html=1;align=center;verticalAlign=middle;whiteSpace=wrap;rounded=0;" parent="AZJ5ZLYv0wKqi_fWB7lU-9" vertex="1">
          <mxGeometry x="225" y="357.5" width="40" height="17.5" as="geometry" />
        </mxCell>
        <mxCell id="AZJ5ZLYv0wKqi_fWB7lU-48" value="" style="rounded=0;whiteSpace=wrap;html=1;" parent="AZJ5ZLYv0wKqi_fWB7lU-9" vertex="1">
          <mxGeometry x="113.75" y="395" width="111.25" height="20" as="geometry" />
        </mxCell>
        <mxCell id="AZJ5ZLYv0wKqi_fWB7lU-49" value="Age range:" style="text;html=1;align=left;verticalAlign=middle;whiteSpace=wrap;rounded=0;" parent="AZJ5ZLYv0wKqi_fWB7lU-9" vertex="1">
          <mxGeometry x="31.25" y="395" width="80" height="30" as="geometry" />
        </mxCell>
        <mxCell id="AZJ5ZLYv0wKqi_fWB7lU-50" value="" style="rounded=0;whiteSpace=wrap;html=1;" parent="AZJ5ZLYv0wKqi_fWB7lU-9" vertex="1">
          <mxGeometry x="202.5" y="395" width="22.5" height="20" as="geometry" />
        </mxCell>
        <mxCell id="AZJ5ZLYv0wKqi_fWB7lU-51" value="" style="triangle;whiteSpace=wrap;html=1;rotation=90;" parent="AZJ5ZLYv0wKqi_fWB7lU-9" vertex="1">
          <mxGeometry x="205.63" y="396.25" width="16.25" height="20" as="geometry" />
        </mxCell>
        <mxCell id="AZJ5ZLYv0wKqi_fWB7lU-52" value="&lt;font style=&quot;font-size: 8px;&quot;&gt;18-29&lt;/font&gt;" style="text;html=1;align=center;verticalAlign=middle;whiteSpace=wrap;rounded=0;" parent="AZJ5ZLYv0wKqi_fWB7lU-9" vertex="1">
          <mxGeometry x="120" y="397.5" width="40" height="17.5" as="geometry" />
        </mxCell>
        <mxCell id="AZJ5ZLYv0wKqi_fWB7lU-53" value="" style="rounded=0;whiteSpace=wrap;html=1;" parent="AZJ5ZLYv0wKqi_fWB7lU-9" vertex="1">
          <mxGeometry x="115" y="240" width="110" height="20" as="geometry" />
        </mxCell>
        <mxCell id="AZJ5ZLYv0wKqi_fWB7lU-54" value="Email:&amp;nbsp;" style="text;html=1;align=left;verticalAlign=middle;whiteSpace=wrap;rounded=0;" parent="AZJ5ZLYv0wKqi_fWB7lU-9" vertex="1">
          <mxGeometry x="35" y="235" width="80" height="30" as="geometry" />
        </mxCell>
        <mxCell id="AZJ5ZLYv0wKqi_fWB7lU-55" value="" style="rounded=0;whiteSpace=wrap;html=1;" parent="AZJ5ZLYv0wKqi_fWB7lU-9" vertex="1">
          <mxGeometry x="113.75" y="200" width="110" height="20" as="geometry" />
        </mxCell>
        <mxCell id="AZJ5ZLYv0wKqi_fWB7lU-56" value="Username:&amp;nbsp;" style="text;html=1;align=left;verticalAlign=middle;whiteSpace=wrap;rounded=0;" parent="AZJ5ZLYv0wKqi_fWB7lU-9" vertex="1">
          <mxGeometry x="32.5" y="197.5" width="80" height="30" as="geometry" />
        </mxCell>
        <mxCell id="AZJ5ZLYv0wKqi_fWB7lU-57" value="" style="rounded=0;whiteSpace=wrap;html=1;" parent="AZJ5ZLYv0wKqi_fWB7lU-9" vertex="1">
          <mxGeometry x="115" y="445" width="110" height="20" as="geometry" />
        </mxCell>
        <mxCell id="AZJ5ZLYv0wKqi_fWB7lU-58" value="Phone:&amp;nbsp;" style="text;html=1;align=left;verticalAlign=middle;whiteSpace=wrap;rounded=0;" parent="AZJ5ZLYv0wKqi_fWB7lU-9" vertex="1">
          <mxGeometry x="31.25" y="440" width="80" height="30" as="geometry" />
        </mxCell>
        <mxCell id="AZJ5ZLYv0wKqi_fWB7lU-59" value="Submit" style="rounded=1;whiteSpace=wrap;html=1;" parent="AZJ5ZLYv0wKqi_fWB7lU-9" vertex="1">
          <mxGeometry x="30.75" y="610" width="66" height="20" as="geometry" />
        </mxCell>
        <mxCell id="AZJ5ZLYv0wKqi_fWB7lU-62" value="Industry:" style="text;html=1;align=left;verticalAlign=middle;whiteSpace=wrap;rounded=0;" parent="AZJ5ZLYv0wKqi_fWB7lU-9" vertex="1">
          <mxGeometry x="31.25" y="480" width="80" height="30" as="geometry" />
        </mxCell>
        <mxCell id="AZJ5ZLYv0wKqi_fWB7lU-63" value="" style="rounded=0;whiteSpace=wrap;html=1;" parent="AZJ5ZLYv0wKqi_fWB7lU-9" vertex="1">
          <mxGeometry x="115" y="485" width="15" height="15" as="geometry" />
        </mxCell>
        <mxCell id="AZJ5ZLYv0wKqi_fWB7lU-64" value="" style="rounded=0;whiteSpace=wrap;html=1;" parent="AZJ5ZLYv0wKqi_fWB7lU-9" vertex="1">
          <mxGeometry x="183.75" y="487.5" width="15" height="15" as="geometry" />
        </mxCell>
        <mxCell id="AZJ5ZLYv0wKqi_fWB7lU-65" value="&lt;font style=&quot;font-size: 8px;&quot;&gt;IT&lt;/font&gt;" style="text;html=1;align=center;verticalAlign=middle;whiteSpace=wrap;rounded=0;" parent="AZJ5ZLYv0wKqi_fWB7lU-9" vertex="1">
          <mxGeometry x="131.25" y="486.25" width="40" height="17.5" as="geometry" />
        </mxCell>
        <mxCell id="AZJ5ZLYv0wKqi_fWB7lU-66" value="&lt;font style=&quot;font-size: 8px;&quot;&gt;Finance&lt;/font&gt;" style="text;html=1;align=center;verticalAlign=middle;whiteSpace=wrap;rounded=0;" parent="AZJ5ZLYv0wKqi_fWB7lU-9" vertex="1">
          <mxGeometry x="200" y="485" width="40" height="17.5" as="geometry" />
        </mxCell>
        <mxCell id="AZJ5ZLYv0wKqi_fWB7lU-23" value="Reset" style="rounded=1;whiteSpace=wrap;html=1;" parent="AZJ5ZLYv0wKqi_fWB7lU-9" vertex="1">
          <mxGeometry x="105.25" y="610" width="66" height="20" as="geometry" />
        </mxCell>
        <mxCell id="AZJ5ZLYv0wKqi_fWB7lU-68" value="" style="rounded=0;whiteSpace=wrap;html=1;" parent="AZJ5ZLYv0wKqi_fWB7lU-9" vertex="1">
          <mxGeometry x="250" y="490" width="15" height="15" as="geometry" />
        </mxCell>
        <mxCell id="AZJ5ZLYv0wKqi_fWB7lU-69" value="&lt;font style=&quot;font-size: 8px;&quot;&gt;HR&lt;/font&gt;" style="text;html=1;align=center;verticalAlign=middle;whiteSpace=wrap;rounded=0;" parent="AZJ5ZLYv0wKqi_fWB7lU-9" vertex="1">
          <mxGeometry x="266.25" y="487.5" width="40" height="17.5" as="geometry" />
        </mxCell>
        <mxCell id="AZJ5ZLYv0wKqi_fWB7lU-70" value="" style="rounded=0;whiteSpace=wrap;html=1;" parent="AZJ5ZLYv0wKqi_fWB7lU-9" vertex="1">
          <mxGeometry x="115" y="525" width="110" height="20" as="geometry" />
        </mxCell>
        <mxCell id="AZJ5ZLYv0wKqi_fWB7lU-71" value="City:&amp;nbsp;" style="text;html=1;align=left;verticalAlign=middle;whiteSpace=wrap;rounded=0;" parent="AZJ5ZLYv0wKqi_fWB7lU-9" vertex="1">
          <mxGeometry x="31.25" y="520" width="80" height="30" as="geometry" />
        </mxCell>
        <mxCell id="AZJ5ZLYv0wKqi_fWB7lU-73" value="" style="rounded=0;whiteSpace=wrap;html=1;" parent="AZJ5ZLYv0wKqi_fWB7lU-9" vertex="1">
          <mxGeometry x="202.5" y="525" width="22.5" height="20" as="geometry" />
        </mxCell>
        <mxCell id="AZJ5ZLYv0wKqi_fWB7lU-72" value="" style="triangle;whiteSpace=wrap;html=1;rotation=90;" parent="AZJ5ZLYv0wKqi_fWB7lU-9" vertex="1">
          <mxGeometry x="205.63" y="525" width="16.25" height="20" as="geometry" />
        </mxCell>
        <mxCell id="AZJ5ZLYv0wKqi_fWB7lU-74" value="&lt;font style=&quot;font-size: 8px;&quot;&gt;Hong Kong&lt;/font&gt;" style="text;html=1;align=center;verticalAlign=middle;whiteSpace=wrap;rounded=0;" parent="AZJ5ZLYv0wKqi_fWB7lU-9" vertex="1">
          <mxGeometry x="120" y="526.25" width="50" height="17.5" as="geometry" />
        </mxCell>
        <mxCell id="AZJ5ZLYv0wKqi_fWB7lU-76" value="" style="verticalLabelPosition=bottom;html=1;verticalAlign=top;strokeWidth=1;align=center;outlineConnect=0;dashed=0;outlineConnect=0;shape=mxgraph.aws3d.image;strokeColor=none;fillColor=#777777;aspect=fixed;" parent="AZJ5ZLYv0wKqi_fWB7lU-9" vertex="1">
          <mxGeometry x="30.75" y="111" width="24.13" height="41.5" as="geometry" />
        </mxCell>
        <mxCell id="fHuBCH_pNnJyEU7MtAPp-43" value="" style="strokeWidth=1;shadow=0;dashed=0;align=center;html=1;shape=mxgraph.mockup.containers.browserWindow;rSize=0;strokeColor=#666666;strokeColor2=#008cff;strokeColor3=#c4c4c4;mainText=,;recursiveResize=0;" vertex="1" parent="1">
          <mxGeometry x="1090" y="240" width="550" height="410" as="geometry" />
        </mxCell>
        <mxCell id="fHuBCH_pNnJyEU7MtAPp-44" value="Page 1" style="strokeWidth=1;shadow=0;dashed=0;align=center;html=1;shape=mxgraph.mockup.containers.anchor;fontSize=17;fontColor=#666666;align=left;whiteSpace=wrap;" vertex="1" parent="fHuBCH_pNnJyEU7MtAPp-43">
          <mxGeometry x="60" y="12" width="110" height="26" as="geometry" />
        </mxCell>
        <mxCell id="fHuBCH_pNnJyEU7MtAPp-45" value="https://www.draw.io" style="strokeWidth=1;shadow=0;dashed=0;align=center;html=1;shape=mxgraph.mockup.containers.anchor;rSize=0;fontSize=17;fontColor=#666666;align=left;" vertex="1" parent="fHuBCH_pNnJyEU7MtAPp-43">
          <mxGeometry x="130" y="60" width="250" height="26" as="geometry" />
        </mxCell>
        <mxCell id="fHuBCH_pNnJyEU7MtAPp-46" value="" style="rounded=0;whiteSpace=wrap;html=1;dashed=1;dashPattern=8 8;" vertex="1" parent="fHuBCH_pNnJyEU7MtAPp-43">
          <mxGeometry x="31" y="175" width="319" height="155" as="geometry" />
        </mxCell>
        <mxCell id="fHuBCH_pNnJyEU7MtAPp-47" value="" style="rounded=0;whiteSpace=wrap;html=1;" vertex="1" parent="fHuBCH_pNnJyEU7MtAPp-43">
          <mxGeometry x="40" y="180" width="250" height="50" as="geometry" />
        </mxCell>
        <mxCell id="fHuBCH_pNnJyEU7MtAPp-48" value="" style="rounded=0;whiteSpace=wrap;html=1;" vertex="1" parent="fHuBCH_pNnJyEU7MtAPp-43">
          <mxGeometry x="40" y="187.5" width="79" height="35" as="geometry" />
        </mxCell>
        <mxCell id="fHuBCH_pNnJyEU7MtAPp-49" value="welcome to my website" style="text;html=1;align=center;verticalAlign=middle;whiteSpace=wrap;rounded=0;" vertex="1" parent="fHuBCH_pNnJyEU7MtAPp-43">
          <mxGeometry x="125.5" y="190" width="130" height="30" as="geometry" />
        </mxCell>
      </root>
    </mxGraphModel>
  </diagram>
</mxfile>
